<svg width="300" height="300" viewBox="0 0 200 200" xmlns="http://www.w3.org/2000/svg" style="background-color: transparent;"><rect width="200" height="200" fill="#448AFF"/><g transform="rotate(-2 100 95)"><rect x="22.5" y="17.5" rx="15" ry="15" width="155" height="155" fill="#FF5252"/><g><path d="M22.5 7.5 &#10;                     L35.416666666666664 -12.5 &#10;                     L48.33333333333333 7.5" fill="#FFFF00"/><path d="M48.33333333333333 7.5 &#10;                     L61.24999999999999 -12.5 &#10;                     L74.16666666666666 7.5" fill="#FFFF00"/><path d="M74.16666666666666 7.5 &#10;                     L87.08333333333333 -12.5 &#10;                     L99.99999999999999 7.5" fill="#FFFF00"/><path d="M100 7.5 &#10;                     L112.91666666666667 -12.5 &#10;                     L125.83333333333333 7.5" fill="#FFFF00"/><path d="M125.83333333333333 7.5 &#10;                     L138.75 -12.5 &#10;                     L151.66666666666666 7.5" fill="#FFFF00"/><path d="M151.66666666666666 7.5 &#10;                     L164.58333333333331 -12.5 &#10;                     L177.5 7.5" fill="#FFFF00"/><path d="M177.5 7.5 &#10;                     L190.41666666666666 -12.5 &#10;                     L203.33333333333334 7.5" fill="#FFFF00"/></g><g><ellipse cx="71" cy="75" rx="7" ry="4.666666666666667" fill="#E040FB"/><ellipse cx="129" cy="75" rx="7" ry="4.666666666666667" fill="#E040FB"/></g><path d="M83.5 125 &#10;               Q100 103, 116.5 125" fill="none" stroke="#40C4FF" stroke-width="3"/><g><rect x="56" y="67" width="30" height="15" rx="5" fill="none" stroke="#FFAB40" stroke-width="2"/><rect x="114" y="67" width="30" height="15" rx="5" fill="none" stroke="#FFAB40" stroke-width="2"/><line x1="86" y1="75" x2="114" y2="75" stroke="#FFAB40" stroke-width="2"/></g></g></svg>