<svg width="250" height="250" viewBox="0 0 200 200" xmlns="http://www.w3.org/2000/svg" style="background-color: transparent;"><rect width="200" height="200" fill="#B2FF59"/><g transform="rotate(3 100 95.5)"><rect x="20.5" y="16" rx="15" ry="15" width="159" height="159" fill="#448AFF"/><g><rect x="20.5" y="11.099999999999994" width="159" height="20" fill="#FF6E40" rx="5"/><path d="M60.25 12 &#10;                 Q73.5 55.75, &#10;                 100 55.75&#10;                 Q126.5 55.75, &#10;                 139.75 12" fill="#FF6E40"/></g><g><rect x="61" y="73.5" width="8" height="4" rx="2" fill="#40C4FF"/><rect x="131" y="73.5" width="8" height="4" rx="2" fill="#40C4FF"/></g><line x1="85" y1="125.5" x2="115" y2="125.5" stroke="#EEFF41" stroke-width="3"/><g><path d="M53.23529411764706 125.5 &#10;             Q100 157.3, 153 125.5" fill="none" stroke="#FF4081" stroke-width="3"/><path d="M60.25 130.5 &#10;             Q82.33333333333333 165.25, 100 143.16666666666666&#10;             Q122.71428571428572 165.25, 145.42857142857144 129.5" fill="#FF4081" stroke="#FF4081" stroke-width="3"/></g></g></svg>